<?xml version="1.0" encoding="utf-8"?>
<!-- Generator: Adobe Illustrator 27.1.0, SVG Export Plug-In . SVG Version: 6.00 Build 0)  -->
<svg version="1.1" xmlns="http://www.w3.org/2000/svg" xmlns:xlink="http://www.w3.org/1999/xlink" x="0px" y="0px" width="72px"
	 height="72px" viewBox="0 0 72 72" style="enable-background:new 0 0 72 72;" xml:space="preserve">
<style type="text/css">
	.st0{fill:none;}
	.st1{display:none;}
	.st2{display:inline;fill:#85BC20;}
	.st3{display:inline;fill:#007AC3;}
	.st4{display:inline;fill:#E5202E;}
	.st5{display:inline;}
</style>
<g id="transparant_background">
	<g id="a">
		<rect class="st0" width="72" height="72"/>
	</g>
</g>
<g id="basic__x2B__medium_icon_OUTLINE">
	<g>
		<path d="M13.8,17c2.6-0.6,5.2-1.2,7.7-1.2c4.1,0,6.8,0.8,8.3,1.5c1.1-0.1,2.2-0.3,3.2-0.4c-0.2-0.2-0.5-0.4-0.7-0.5
			c-0.1-0.1-3.5-2.5-10.8-2.5c-2.7,0-5.6,0.7-8.1,1.2C11.3,15.5,9.3,16,7.8,16C6,16,0,16,0,16v2c0,0,6,0,7.8,0
			C9.5,18,11.6,17.5,13.8,17z"/>
		<path d="M62.5,22c-0.7,0-2.3-0.9-3.6-1.6C56.9,19.2,54.7,18,53,18H40c-0.6,0-2,0.2-3.8,0.4c-3.3,0.5-8.4,1.2-12.6,1.2
			c-1.6,0-4.3,0-4.3,2.7c0,2.2,2.4,5.5,6.7,5.5h13.1c0.9,0,2.1,0.8,2.7,1.8c1,1.8,2.2,3.8,2.2,3.8l1.8-1c0,0-1.2-2.1-2.2-3.9
			c-1-1.7-2.8-2.8-4.4-2.8H26.1c-3.3,0-4.7-2.4-4.7-3.5c0-0.4,0-0.7,2.3-0.7c4.4,0,9.5-0.7,12.9-1.2c1.6-0.2,3-0.4,3.5-0.4h13
			c1.2,0,3.2,1.1,5,2.1c1.8,1,3.4,1.9,4.6,1.9H72v-2H62.5z"/>
		<path d="M6.8,37C5,37,0.2,37,0,37v2c0,0,5,0,6.8,0c1.2,0,1.9,0.2,3,1.4c0,0,0.1-0.1,0.1-0.1c0.5-0.4,1-0.8,1.6-1
			C10,37.7,8.8,37.1,6.8,37z"/>
		<path d="M58.1,43.6c-2.7,1.8-5.2,3.2-6.3,3.8c0.4,0.7,0.7,1.3,1,1.8c1.2-0.6,3.7-2,6.5-3.9c1.5-1,3.1-1.3,3.8-1.3h9v-2h-9
			C61.8,42,59.8,42.4,58.1,43.6z"/>
		<path d="M23,50.7c-0.4-0.1-0.7,0-1.1,0c-0.1-0.9-0.5-1.9-1.2-2.7c-0.7-0.8-1.6-1.3-2.6-1.5c0.3-1.3-0.1-2.9-1.2-4.1
			c-0.8-0.8-1.8-1.4-2.8-1.5c-1.1-0.1-2.1,0.1-2.8,0.8c-0.7,0.7-1,1.6-0.9,2.7c0.1,0.9,0.6,1.9,1.4,2.8c0.7,0.8,1.6,1.3,2.4,1.6
			c-0.3,1.2,0.2,2.7,1.4,4h0c1,1.1,2.3,1.7,3.4,1.7c0.1,0,0.3,0,0.4,0c0.2,0.8,0.6,1.7,1.4,2.5c0.8,0.9,1.7,1.4,2.6,1.6
			c0.3,0.1,0.5,0.1,0.7,0.1c0.8,0,1.4-0.3,2-0.8c1.5-1.3,1.3-3.9-0.3-5.7C25.1,51.4,24.1,50.8,23,50.7z M13.3,45.9
			c-0.5-0.6-0.8-1.1-0.9-1.7c-0.1-0.4,0-0.7,0.3-0.9c0.2-0.2,0.5-0.3,0.9-0.3c0.1,0,0.2,0,0.3,0c0.6,0.1,1.2,0.4,1.6,0.9
			c0.9,1,1,2.3,0.4,2.8c-0.2,0.2-0.6,0.3-1,0.2C14.3,46.8,13.8,46.5,13.3,45.9L13.3,45.9z M17,51.4c-0.9-1-1.2-2.1-0.6-2.6
			c0.3-0.2,0.7-0.4,1.2-0.3c0.6,0.1,1.2,0.4,1.6,0.9c0.8,0.9,0.9,2,0.6,2.6c0,0,0,0-0.1,0.1c0,0.1-0.1,0.1-0.1,0.2
			C19,52.8,18,52.4,17,51.4z M24.7,56.4c-0.2,0.2-0.6,0.3-1,0.2c-0.5-0.1-1.1-0.5-1.6-1c-0.8-0.9-1.1-1.8-0.8-2.4c0,0,0,0,0,0
			c0-0.1,0.1-0.1,0.1-0.2c0.3-0.2,0.7-0.4,1.2-0.3c0.6,0.1,1.2,0.4,1.6,0.9C25.3,54.5,25.3,55.9,24.7,56.4z"/>
		<path d="M42.2,34.4L42.2,34.4c0,0-1.1-2.1-2.1-3.8c-0.3-0.5-0.8-0.8-1-0.8l-1.8,0c3.6,6.4,11.7,20.9,12.1,21.7
			c0.4,0.8,0.7,1.9-0.3,2.6c-1.2,0.8-2.1,0.1-2.7-0.6l-0.8-1.2c-1.3-2-8.1-12-8.4-12.4l-0.8,0.5L35.5,41l0,0l0,0
			c0,0,0.1,0.1,0.1,0.1l8.3,12.3c0.1,0.1,0.1,0.2,0.1,0.2c0.4,0.6,0.9,1.8-0.2,2.6c-1.3,1-2.4-0.1-2.7-0.4l-4.6-6.1
			c-2.5-3.4-5.9-7.8-6.1-8.1l-1.6,1.2l5.5,7.3c1.6,2.2,3.1,4.1,3.3,4.5c0.5,0.8,1,1.8,0,2.6c-1.3,1.1-2.5,0.1-2.7-0.2l-9.5-11.1
			c-1.6-1.9-3-3.5-3.1-3.7l-1.5,1.3l2.8,3.2c2.9,3.5,6.3,7.5,6.7,8c0.4,0.6,1,1.8,0.2,2.6c-0.6,0.6-1.3,0.8-2,0.5
			c-0.3,0.6-0.6,1.1-1.1,1.5c0,0-0.1,0-0.1,0.1c0.6,0.3,1.2,0.6,1.9,0.6c0.9,0,1.8-0.3,2.7-1.2c0.4-0.4,0.7-0.8,0.8-1.3l0.7,0.9
			c0.8,0.8,1.9,1.4,3,1.4c0.8,0,1.7-0.3,2.5-1c0.4-0.4,0.7-0.8,0.9-1.3c0.7,0.7,1.7,1.2,2.8,1.2c0.8,0,1.6-0.2,2.3-0.8
			c0.6-0.5,1-1.1,1.2-1.7c0.5,0.3,1.1,0.5,1.7,0.5c0.7,0,1.4-0.2,2.2-0.7c1.6-1.1,2-3.1,1-5.2C50.9,50,45.8,40.8,42.2,34.4z"/>
	</g>
</g>
<g id="large_icon" class="st1">
	<path class="st2" d="M13.8,17c2.6-0.6,5.2-1.2,7.7-1.2c4.1,0,6.8,0.8,8.3,1.5c1.1-0.1,2.2-0.3,3.2-0.4c-0.2-0.2-0.5-0.4-0.7-0.5
		c-0.1-0.1-3.5-2.5-10.8-2.5c-2.7,0-5.6,0.7-8.1,1.2C11.3,15.5,9.3,16,7.8,16C6,16,0,16,0,16v2c0,0,6,0,7.8,0
		C9.5,18,11.6,17.5,13.8,17z"/>
	<path class="st3" d="M62.5,22c-0.7,0-2.3-0.9-3.6-1.6C56.9,19.2,54.7,18,53,18H40c-0.6,0-2,0.2-3.8,0.4c-3.3,0.5-8.4,1.2-12.6,1.2
		c-1.6,0-4.3,0-4.3,2.7c0,2.2,2.4,5.5,6.7,5.5h13.1c0.9,0,2.1,0.8,2.7,1.8c1,1.8,2.2,3.8,2.2,3.8l1.8-1c0,0-1.2-2.1-2.2-3.9
		c-1-1.7-2.8-2.8-4.4-2.8H26.1c-3.3,0-4.7-2.4-4.7-3.5c0-0.4,0-0.7,2.3-0.7c4.4,0,9.5-0.7,12.9-1.2c1.6-0.2,3-0.4,3.5-0.4h13
		c1.2,0,3.2,1.1,5,2.1c1.8,1,3.4,1.9,4.6,1.9H72v-2H62.5z"/>
	<path class="st3" d="M6.8,37C5,37,0.2,37,0,37v2c0,0,5,0,6.8,0c1.2,0,1.9,0.2,3,1.4c0,0,0.1-0.1,0.1-0.1c0.5-0.4,1-0.8,1.6-1
		C10,37.7,8.8,37.1,6.8,37z"/>
	<path class="st4" d="M58.1,43.6c-2.7,1.8-5.2,3.2-6.3,3.8c0.4,0.7,0.7,1.3,1,1.8c1.2-0.6,3.7-2,6.5-3.9c1.5-1,3.1-1.3,3.8-1.3h9v-2
		h-9C61.8,42,59.8,42.4,58.1,43.6z"/>
	<path class="st4" d="M23,50.7c-0.4-0.1-0.7,0-1.1,0c-0.1-0.9-0.5-1.9-1.2-2.7c-0.7-0.8-1.6-1.3-2.6-1.5c0.3-1.3-0.1-2.9-1.2-4.1
		c-0.8-0.8-1.8-1.4-2.8-1.5c-1.1-0.1-2.1,0.1-2.8,0.8c-0.7,0.7-1,1.6-0.9,2.7c0.1,0.9,0.6,1.9,1.4,2.8c0.7,0.8,1.6,1.3,2.4,1.6
		c-0.3,1.2,0.2,2.7,1.4,4h0c1,1.1,2.3,1.7,3.4,1.7c0.1,0,0.3,0,0.4,0c0.2,0.8,0.6,1.7,1.4,2.5c0.8,0.9,1.7,1.4,2.6,1.6
		c0.3,0.1,0.5,0.1,0.7,0.1c0.8,0,1.4-0.3,2-0.8c1.5-1.3,1.3-3.9-0.3-5.7C25.1,51.4,24.1,50.8,23,50.7z M13.3,45.9
		c-0.5-0.6-0.8-1.1-0.9-1.7c-0.1-0.4,0-0.7,0.3-0.9c0.2-0.2,0.5-0.3,0.9-0.3c0.1,0,0.2,0,0.3,0c0.6,0.1,1.2,0.4,1.6,0.9
		c0.9,1,1,2.3,0.4,2.8c-0.2,0.2-0.6,0.3-1,0.2C14.3,46.8,13.8,46.5,13.3,45.9L13.3,45.9z M17,51.4c-0.9-1-1.2-2.1-0.6-2.6
		c0.3-0.2,0.7-0.4,1.2-0.3c0.6,0.1,1.2,0.4,1.6,0.9c0.8,0.9,0.9,2,0.6,2.6c0,0,0,0-0.1,0.1c0,0.1-0.1,0.1-0.1,0.2
		C19,52.8,18,52.4,17,51.4z M24.7,56.4c-0.2,0.2-0.6,0.3-1,0.2c-0.5-0.1-1.1-0.5-1.6-1c-0.8-0.9-1.1-1.8-0.8-2.4c0,0,0,0,0,0
		c0-0.1,0.1-0.1,0.1-0.2c0.3-0.2,0.7-0.4,1.2-0.3c0.6,0.1,1.2,0.4,1.6,0.9C25.3,54.5,25.3,55.9,24.7,56.4z"/>
	<path class="st5" d="M42.2,34.4L42.2,34.4c0,0-1.1-2.1-2.1-3.8c-0.3-0.5-0.8-0.8-1-0.8l-1.8,0c3.6,6.4,11.7,20.9,12.1,21.7
		c0.4,0.8,0.7,1.9-0.3,2.6c-1.2,0.8-2.1,0.1-2.7-0.6l-0.8-1.2c-1.3-2-8.1-12-8.4-12.4l-0.8,0.5L35.5,41l0,0l0,0c0,0,0.1,0.1,0.1,0.1
		l8.3,12.3c0.1,0.1,0.1,0.2,0.1,0.2c0.4,0.6,0.9,1.8-0.2,2.6c-1.3,1-2.4-0.1-2.7-0.4l-4.6-6.1c-2.5-3.4-5.9-7.8-6.1-8.1l-1.6,1.2
		l5.5,7.3c1.6,2.2,3.1,4.1,3.3,4.5c0.5,0.8,1,1.8,0,2.6c-1.3,1.1-2.5,0.1-2.7-0.2l-9.5-11.1c-1.6-1.9-3-3.5-3.1-3.7l-1.5,1.3
		l2.8,3.2c2.9,3.5,6.3,7.5,6.7,8c0.4,0.6,1,1.8,0.2,2.6c-0.6,0.6-1.3,0.8-2,0.5c-0.3,0.6-0.6,1.1-1.1,1.5c0,0-0.1,0-0.1,0.1
		c0.6,0.3,1.2,0.6,1.9,0.6c0.9,0,1.8-0.3,2.7-1.2c0.4-0.4,0.7-0.8,0.8-1.3l0.7,0.9c0.8,0.8,1.9,1.4,3,1.4c0.8,0,1.7-0.3,2.5-1
		c0.4-0.4,0.7-0.8,0.9-1.3c0.7,0.7,1.7,1.2,2.8,1.2c0.8,0,1.6-0.2,2.3-0.8c0.6-0.5,1-1.1,1.2-1.7c0.5,0.3,1.1,0.5,1.7,0.5
		c0.7,0,1.4-0.2,2.2-0.7c1.6-1.1,2-3.1,1-5.2C50.9,50,45.8,40.8,42.2,34.4z"/>
</g>
<g id="colored_circle" class="st1">
</g>
<g id="primary_illustration_line_OUTLINe" class="st1">
	<path class="st3" d="M-8.1,5.4c0,5.9,6.4,14.5,18,14.5h36.9c2.8,0,6.4,2.4,8.2,5.5c2.8,4.9,6.1,10.8,6.1,10.8l3.5-1.9
		c0-0.1-3.3-6-6.2-10.9c-2.6-4.4-7.4-7.5-11.6-7.5H9.9c-9.3,0-14-6.8-14-10.5c0-1.6,0-2.8,7.2-2.8c11.4,0,23.4-1.8,33-3.3
		c5.6-0.8,10.4-1.6,13-1.6h36.3c4.2,0,10.1,3.4,15.3,6.4c4.8,2.7,8.9,5.1,12,5.1h26.7v-4h-26.7c-2,0-6.1-2.3-10-4.6
		c-5.6-3.2-12-6.9-17.3-6.9H49.1c-2.9,0-7.6,0.7-13.6,1.6C26.1-3.2,14.2-1.5,3.1-1.5C-1.3-1.5-8.1-1.5-8.1,5.4z"/>
	<path class="st4" d="M8.7,90c-3.1-3.3-7.5-4.7-11.2-3.8c0-0.1,0-0.1,0-0.2c-0.2-2.8-1.4-5.5-3.4-7.7c-2.2-2.3-5-3.7-7.7-4
		c1.2-3.6,0.2-8.2-2.9-11.5c-4.2-4.5-11-5.4-14.7-1.9c-3.7,3.4-3,9.2,1.5,14.2c2.2,2.4,4.7,3.9,7.1,4.4c-0.4,1.2-0.5,2.5-0.3,3.8
		c0.4,2.5,1.7,5,3.8,7.3c2.1,2.3,4.6,3.8,7,4.4c0.7,0.1,1.3,0.2,1.9,0.2c0.6,0,1.2-0.1,1.8-0.2c0,0,0,0,0,0.1c0.4,2.5,1.7,5,3.8,7.3
		c2.1,2.3,4.6,3.8,7,4.4c0.7,0.1,1.3,0.2,1.9,0.2c1.9,0,3.7-0.7,5.1-2c1.8-1.7,2.8-4.3,2.6-7.1C12,94.9,10.8,92.2,8.7,90z
		 M-26.7,72.3c-3-3.2-3.7-6.7-1.8-8.5c1.9-1.8,6.1-1.5,9.1,1.7c3,3.2,2.9,7.4,1,9.2C-20.3,76.5-23.8,75.5-26.7,72.3z M-11.2,91
		c-1.6-0.4-3.4-1.5-4.9-3.2c-1.6-1.7-2.6-3.5-2.8-5.2c-0.2-1.4,0.1-2.5,1-3.4c0.8-0.7,1.9-1.1,3.1-1.1c1.9,0,4.1,0.9,5.9,2.8
		c1.4,1.5,2.2,3.4,2.4,5.3c0.1,1.2-0.2,2.2-0.7,3.1c-0.1,0.1-0.1,0.2-0.2,0.2c-0.2,0.2-0.3,0.4-0.5,0.6C-8.6,91-9.8,91.3-11.2,91z
		 M6.8,101.9c-0.9,0.8-2,1.1-3.4,0.8c-1.6-0.4-3.4-1.5-4.9-3.2c-1.6-1.7-2.6-3.5-2.8-5.2c-0.1-1,0-1.9,0.4-2.6
		c0-0.1,0.1-0.1,0.1-0.2c0.1-0.2,0.3-0.4,0.5-0.6c0.8-0.7,1.9-1.1,3.1-1.1c1.9,0,4.1,0.9,5.9,2.8C7.2,94.2,8,96.1,8.1,98
		C8.2,99.6,7.8,101,6.8,101.9z"/>
	<path class="st5" d="M46,23.9h-4.4L41.4,24c11.6,20.9,34,61,35.1,63.3c1,2.1,2.2,6-1.2,8.5c-4.2,2.9-7.2,0-8.7-2l-2.4-3.5
		c-3.7-5.7-22.3-33.1-23.6-34.9l0-0.1l0,0c0,0,0,0,0,0l-1.7,1.1l-1.7,1.1l23.6,35c0.2,0.3,0.4,0.6,0.5,0.7c1,1.6,2.9,5.7-0.7,8.4
		c-4.4,3.3-7.9-0.2-8.8-1.3L38.2,82.1c-7-9.4-15.9-21.1-16.5-21.9l-3.2,2.4l15.8,20.9c4.5,6,8.4,11.2,9.2,12.3c1.4,2,3.2,5.7,0,8.5
		c-4.2,3.6-8.1,0.2-8.9-0.7L8.2,72.6C3.4,66.9-0.6,62.2-1,61.8l-3,2.6l8.6,10.1c7.4,8.7,17,20,18.2,21.6c1.4,1.8,3.3,5.9,0.6,8.5
		c-3.4,3.2-6.5,1.9-8.7,0.1c-0.6,1.2-1.4,2.2-2.4,3.1c0,0,0,0-0.1,0.1c1.9,1.6,4.3,2.7,6.9,2.7c2.3,0,4.7-0.9,7-3.1
		c1.4-1.4,2.2-3,2.5-4.7l2.9,3.5l0.1,0.1c2.1,2.1,4.9,3.6,7.9,3.6c2.2,0,4.4-0.8,6.6-2.6c1.5-1.3,2.4-2.8,2.9-4.4c2,2.4,5,4,8.1,4
		c2,0,4.1-0.7,6.1-2.2c1.9-1.5,3.1-3.4,3.5-5.5c1.5,1.1,3.3,1.7,5.3,1.7c1.8,0,3.7-0.6,5.7-1.9c4.3-3,5.2-8,2.6-13.5
		C78.8,82.8,51.8,34.3,46,23.9z"/>
</g>
</svg>
