<?xml version="1.0" encoding="utf-8"?>
<!-- Generator: Adobe Illustrator 27.0.0, SVG Export Plug-In . SVG Version: 6.00 Build 0)  -->
<svg version="1.1" id="person-circle-arrows" xmlns="http://www.w3.org/2000/svg" xmlns:xlink="http://www.w3.org/1999/xlink"
	 x="0px" y="0px" width="72px" height="72px" viewBox="0 0 72 72" style="enable-background:new 0 0 72 72;" xml:space="preserve">
<style type="text/css">
	.st0{fill:none;}
</style>
<rect class="st0" width="72" height="72"/>
<path d="M71.759,38.002l-6.143-6.036l-6.035,6.142l1.426,1.402l3.722-3.787c-0.023,1.05-0.095,2.101-0.23,3.143
	c-0.995,7.697-4.929,14.547-11.075,19.286c-6.147,4.739-13.769,6.806-21.47,5.806C21.377,62.592,12.415,55.557,8.563,45.6
	L6.698,46.32c4.116,10.643,13.696,18.16,25,19.622c1.354,0.175,2.704,0.261,4.047,0.261c6.819,0,13.411-2.234,18.9-6.467
	c6.57-5.065,10.774-12.387,11.839-20.614c0.139-1.082,0.216-2.172,0.243-3.262l3.63,3.568L71.759,38.002z"/>
<path d="M40.302,6.058C23.318,3.861,7.713,15.893,5.517,32.878c-0.14,1.083-0.217,2.173-0.244,3.261l-3.63-3.568l-1.402,1.427
	l6.142,6.036l6.036-6.142l-1.427-1.401l-3.721,3.787c0.022-1.049,0.094-2.1,0.229-3.143C9.556,17.244,24.156,5.986,40.046,8.041
	c10.577,1.368,19.54,8.402,23.392,18.359l1.865-0.722C61.187,15.038,51.607,7.519,40.302,6.058z"/>
<path d="M35.759,32.892c-3.111,0-6.578-4.007-6.578-9.756c0-5.943,4.872-7.281,6.578-7.281s6.58,1.338,6.58,7.281
	C42.339,28.971,38.937,32.892,35.759,32.892z M35.759,17.854c-0.046,0-4.578,0.227-4.578,5.281c0,4.735,2.711,7.756,4.578,7.756
	c1.913,0,4.58-2.951,4.58-7.756C40.339,18.081,35.805,17.854,35.759,17.854z"/>
<g>
	<path d="M23.934,51c0.317-4.492,0.738-10.157,0.737-10.183c0.305-1.875,3.341-2.793,5.558-3.464
		c0.404-0.123,0.787-0.239,1.132-0.354c0.885,0.676,2.831,2,4.485,2c1.657,0,3.667-1.334,4.569-2.002
		c0.338,0.112,0.711,0.226,1.104,0.346c2.192,0.67,5.195,1.588,5.502,3.474c0.223,1.368,0.652,6.296,0.971,10.183h2.007
		c-0.323-3.941-0.766-9.043-1.004-10.504c-0.507-3.114-4.197-4.241-6.892-5.064c-0.568-0.174-1.09-0.332-1.515-0.493l-0.54-0.204
		l-0.447,0.365C38.7,35.834,36.883,37,35.846,37c-1.03,0-2.784-1.159-3.647-1.89l-0.45-0.38l-0.551,0.208
		c-0.431,0.164-0.965,0.324-1.549,0.5c-2.72,0.823-6.446,1.951-6.962,5.143c-0.026,0.347-0.446,5.987-0.758,10.418H23.934z"/>
</g>
</svg>
